<svg width="52" height="52" viewBox="0 0 52 52" fill="none" xmlns="http://www.w3.org/2000/svg">
<path d="M22.9629 8C31.2267 8 37.9264 14.6469 37.9268 22.8457L37.9219 23.2285C37.8303 26.8189 36.4527 30.0921 34.2305 32.6133L44.3867 42.6924L43.6816 43.4023L42.9775 44.1113L32.8115 34.0225C30.1797 36.307 26.7344 37.6914 22.9629 37.6914C14.6991 37.6912 8 31.0447 8 22.8457C8.00033 14.647 14.6993 8.00021 22.9629 8ZM22.9629 10C15.789 10.0002 10.0003 15.7664 10 22.8457C10 29.9253 15.7888 35.6912 22.9629 35.6914C30.1372 35.6914 35.9268 29.9254 35.9268 22.8457C35.9264 15.7663 30.137 10 22.9629 10Z" fill="white"/>
</svg>
